<svg width="30" height="30" viewBox="0 0 30 30" fill="none" xmlns="http://www.w3.org/2000/svg">
<path fill-rule="evenodd" clip-rule="evenodd" d="M6 3C4.343 3 3 4.343 3 6V17.586L7.29303 13.293C7.68303 12.902 8.31697 12.902 8.70697 13.293L16.5 21.086L21.293 16.293C21.683 15.902 22.317 15.902 22.707 16.293L27 20.586V6C27 4.343 25.657 3 24 3H6ZM29 6C29 3.239 26.761 1 24 1H6C3.239 1 1 3.239 1 6V24C1 26.761 3.239 29 6 29H24C26.761 29 29 26.761 29 24V6ZM27 23.414L22 18.414L17.914 22.5L22.414 27H24C25.657 27 27 25.657 27 24V23.414ZM19.586 27L8 15.414L3 20.414V24C3 25.657 4.343 27 6 27H19.586ZM21 7C19.895 7 19 7.895 19 9C19 10.105 19.895 11 21 11C22.105 11 23 10.105 23 9C23 7.895 22.105 7 21 7ZM17 9C17 6.791 18.791 5 21 5C23.209 5 25 6.791 25 9C25 11.209 23.209 13 21 13C18.791 13 17 11.209 17 9Z" fill="#444746" stroke="#444746"/>
</svg>
