<svg width="30" height="30" viewBox="0 0 30 30" fill="none" xmlns="http://www.w3.org/2000/svg">
<path d="M27 23V24C27 25.66 25.66 27 24 27H23C22.45 27 22 27.45 22 28C22 28.55 22.45 29 23 29H24C26.76 29 29 26.76 29 24V23C29 22.45 28.55 22 28 22C27.45 22 27 22.45 27 23Z" fill="#444746" stroke="#444746"/>
<path d="M27 13V17C27 17.55 27.45 18 28 18C28.55 18 29 17.55 29 17V13C29 12.45 28.55 12 28 12C27.45 12 27 12.45 27 13Z" fill="#444746" stroke="#444746"/>
<path d="M27 6V7C27 7.55 27.45 8 28 8C28.55 8 29 7.55 29 7V6C29 3.24 26.76 1 24 1H23C22.45 1 22 1.45 22 2C22 2.55 22.45 3 23 3H24C25.66 3 27 4.34 27 6Z" fill="#444746" stroke="#444746"/>
<path d="M17 3C17.55 3 18 2.55 18 2C18 1.45 17.55 1 17 1H13C12.45 1 12 1.45 12 2C12 2.55 12.45 3 13 3H17Z" fill="#444746" stroke="#444746"/>
<path d="M17 29C17.55 29 18 28.55 18 28C18 27.45 17.55 27 17 27H13C12.45 27 12 27.45 12 28C12 28.55 12.45 29 13 29H17Z" fill="#444746" stroke="#444746"/>
<path d="M7 3C7.55 3 8 2.55 8 2C8 1.45 7.55 1 7 1H6C3.24 1 1 3.24 1 6V7C1 7.55 1.45 8 2 8C2.55 8 3 7.55 3 7V6C3 4.34 4.34 3 6 3H7Z" fill="#444746" stroke="#444746"/>
<path d="M7 29C7.55 29 8 28.55 8 28C8 27.45 7.55 27 7 27H6C4.34 27 3 25.66 3 24V23C3 22.45 2.55 22 2 22C1.45 22 1 22.45 1 23V24C1 26.76 3.24 29 6 29H7Z" fill="#444746" stroke="#444746"/>
<path d="M3 13C3 12.45 2.55 12 2 12C1.45 12 1 12.45 1 13V17C1 17.55 1.45 18 2 18C2.55 18 3 17.55 3 17V13Z" fill="#444746" stroke="#444746"/>
<path d="M21.75 9C21.75 8.45 21.3 8 20.75 8H9.25C8.7 8 8.25 8.45 8.25 9C8.25 9.55 8.7 10 9.25 10H14V21C14 21.55 14.45 22 15 22C15.55 22 16 21.55 16 21V10H20.75C21.3 10 21.75 9.55 21.75 9Z" fill="#444746" stroke="#444746"/>
</svg>
