<svg width="30" height="30" viewBox="0 0 30 30" fill="none" xmlns="http://www.w3.org/2000/svg">
<path d="M15 7C15.552 7 16 7.448 16 8V14H22C22.552 14 23 14.448 23 15C23 15.552 22.552 16 22 16H16V22C16 22.55 15.552 23 15 23C14.448 23 14 22.55 14 22V16H8C7.448 16 7 15.552 7 15C7 14.448 7.448 14 8 14H14V8C14 7.448 14.448 7 15 7Z" fill="#444746" stroke="#444746"/>
<path fill-rule="evenodd" clip-rule="evenodd" d="M15 1C7.268 1 1 7.268 1 15C1 22.73 7.268 29 15 29C22.732 29 29 22.73 29 15C29 7.268 22.732 1 15 1ZM3 15C3 8.373 8.373 3 15 3C21.627 3 27 8.373 27 15C27 21.63 21.627 27 15 27C8.373 27 3 21.63 3 15Z" fill="#444746" stroke="#444746"/>
</svg>
