<svg width="43" height="43" viewBox="0 0 43 43" fill="none" xmlns="http://www.w3.org/2000/svg">
<path d="M27.9501 19.3322C29.688 18.1317 30.9063 16.1609 30.9063 14.3334C30.9063 10.2842 27.7709 7.16675 23.7397 7.16675H12.5417V32.2501H25.1551C28.8997 32.2501 31.8022 29.2042 31.8022 25.4597C31.8022 22.7363 30.2613 20.4072 27.9501 19.3322ZM17.9167 11.6459H23.2917C24.7788 11.6459 25.9792 12.8463 25.9792 14.3334C25.9792 15.8205 24.7788 17.0209 23.2917 17.0209H17.9167V11.6459ZM24.1876 27.7709H17.9167V22.3959H24.1876C25.6747 22.3959 26.8751 23.5963 26.8751 25.0834C26.8751 26.5705 25.6747 27.7709 24.1876 27.7709Z" fill="#444746"/>
</svg>
