<svg width="23" height="30" viewBox="0 0 23 30" fill="none" xmlns="http://www.w3.org/2000/svg">
<path fill-rule="evenodd" clip-rule="evenodd" d="M6 6H12.5C14.43 6 16 7.57 16 9.5C16 11.43 14.43 13 12.5 13H6V6ZM8 8V11H12.5C13.33 11 14 10.33 14 9.5C14 8.67 13.33 8 12.5 8H8Z" fill="#444746" stroke="#444746"/>
<path fill-rule="evenodd" clip-rule="evenodd" d="M6 17H12.5C14.43 17 16 18.57 16 20.5C16 22.43 14.43 24 12.5 24H6V17ZM8 19V22H12.5C13.33 22 14 21.33 14 20.5C14 19.67 13.33 19 12.5 19H8Z" fill="#444746" stroke="#444746"/>
<path fill-rule="evenodd" clip-rule="evenodd" d="M3 1C1.9 1 1 1.9 1 3V27C1 28.1 1.9 29 3 29H14C18.42 29 22 25.42 22 21C22 18.36 20.72 16.0201 18.75 14.5601C20.14 13.1201 21 11.16 21 9C21 4.58 17.42 1 13 1H3ZM3 3H13C16.31 3 19 5.69 19 9C19 11.02 18.01 12.8 16.48 13.89C16.19 14.09 16.0301 14.43 16.0601 14.79C16.0901 15.14 16.31 15.45 16.62 15.6C18.62 16.58 20 18.63 20 21C20 24.31 17.31 27 14 27H3V3Z" fill="#444746" stroke="#444746"/>
</svg>
