<svg width="30" height="30" viewBox="0 0 30 30" fill="none" xmlns="http://www.w3.org/2000/svg">
<path fill-rule="evenodd" clip-rule="evenodd" d="M15 3C8.373 3 3 8.373 3 15C3 21.63 8.373 27 15 27C21.627 27 27 21.63 27 15C27 8.373 21.627 3 15 3ZM1 15C1 7.268 7.268 1 15 1C22.732 1 29 7.268 29 15C29 22.73 22.732 29 15 29C7.268 29 1 22.73 1 15ZM9.23102 9.29303C9.62102 8.90203 10.254 8.90203 10.645 9.29303L15 13.648L19.355 9.29303C19.746 8.90203 20.379 8.90203 20.769 9.29303C21.16 9.68303 21.16 10.317 20.769 10.707L16.414 15.062L20.769 19.42C21.16 19.81 21.16 20.44 20.769 20.83C20.379 21.22 19.746 21.22 19.355 20.83L15 16.476L10.645 20.83C10.254 21.22 9.62102 21.22 9.23102 20.83C8.84002 20.44 8.84002 19.81 9.23102 19.42L13.586 15.062L9.23102 10.707C8.84002 10.317 8.84002 9.68303 9.23102 9.29303Z" fill="#444746" stroke="#444746"/>
</svg>
