<svg width="30" height="30" viewBox="0 0 30 30" fill="none" xmlns="http://www.w3.org/2000/svg">
<path fill-rule="evenodd" clip-rule="evenodd" d="M2.00024 18C2.55224 18 3.00024 18.448 3.00024 19V24C3.00024 25.657 4.34324 27 6.00025 27H24.0002C25.6572 27 27.0003 25.657 27.0003 24V19C27.0003 18.448 27.4483 18 28.0003 18C28.5523 18 29.0003 18.448 29.0003 19V24C29.0003 26.761 26.7613 29 24.0002 29H6.00025C3.23924 29 1.00024 26.761 1.00024 24V19C1.00024 18.448 1.44824 18 2.00024 18Z" fill="#444746" stroke="#444746" stroke-width="2"/>
<path fill-rule="evenodd" clip-rule="evenodd" d="M15.7072 22.707C15.3172 23.098 14.6833 23.098 14.2933 22.707L8.29325 16.707C7.90225 16.317 7.90225 15.683 8.29325 15.293C8.68325 14.902 9.31719 14.902 9.70719 15.293L14.0002 19.586V2C14.0002 1.448 14.4482 1 15.0002 1C15.5522 1 16.0002 1.448 16.0002 2V19.586L20.2933 15.293C20.6833 14.902 21.3172 14.902 21.7072 15.293C22.0982 15.683 22.0982 16.317 21.7072 16.707L15.7072 22.707Z" fill="#444746" stroke="#444746" stroke-width="2"/>
</svg>
