<svg width="24" height="30" viewBox="0 0 24 30" fill="none" xmlns="http://www.w3.org/2000/svg">
<path fill-rule="evenodd" clip-rule="evenodd" d="M9 1C8.73 1 8.48004 1.10503 8.29004 1.29303L1.29004 8.29303C1.11004 8.48003 1 8.735 1 9V24C1 26.761 3.24 29 6 29H18C20.76 29 23 26.761 23 24C23 23.448 22.55 23 22 23C21.45 23 21 23.448 21 24C21 25.657 19.66 27 18 27H6C4.34 27 3 25.657 3 24V11H10C10.55 11 11 10.552 11 10V3H18C19.66 3 21 4.343 21 6V10C21 10.552 21.45 11 22 11C22.55 11 23 10.552 23 10V6C23 3.239 20.76 1 18 1H9ZM9 9H3.41003L9 3.414V9Z" fill="#444746" stroke="#444746"/>
<path d="M13.2901 12.293C13.6801 11.902 14.32 11.902 14.71 12.293C15.1 12.683 15.1 13.3169 14.71 13.7069L12.4101 16H21C21.55 16 22 16.448 22 17C22 17.552 21.55 18 21 18H12.4101L14.71 20.293C15.1 20.683 15.1 21.3169 14.71 21.7069C14.32 22.0979 13.6801 22.0979 13.2901 21.7069L9.29006 17.7069C8.90006 17.3169 8.90006 16.683 9.29006 16.293L13.2901 12.293Z" fill="#444746" stroke="#444746"/>
</svg>
