<svg width="30" height="30" viewBox="0 0 30 30" fill="none" xmlns="http://www.w3.org/2000/svg">
<path fill-rule="evenodd" clip-rule="evenodd" d="M18.0001 28C18.0001 27.448 18.4481 27 19.0001 27H24.0001C25.6571 27 27.0001 25.657 27.0001 24L27.0001 5.99999C27.0001 4.34299 25.6571 2.99999 24.0001 2.99999H19.0001C18.4481 2.99999 18.0001 2.55199 18.0001 1.99999C18.0001 1.44799 18.4481 0.999993 19.0001 0.999993H24.0001C26.7611 0.999993 29.0001 3.23899 29.0001 5.99999L29.0001 24C29.0001 26.761 26.7611 29 24.0001 29H19.0001C18.4481 29 18.0001 28.552 18.0001 28Z" fill="#444746" stroke="#444746" stroke-width="2"/>
<path fill-rule="evenodd" clip-rule="evenodd" d="M22.7071 14.2931C23.0981 14.6831 23.0981 15.317 22.7071 15.707L16.7071 21.707C16.3171 22.098 15.6832 22.098 15.2932 21.707C14.9022 21.317 14.9022 20.6831 15.2932 20.2931L19.5861 16L2.00012 16C1.44812 16 1.00012 15.552 1.00012 15C1.00012 14.448 1.44812 14 2.00012 14L19.5861 14L15.2932 9.70699C14.9022 9.31699 14.9022 8.68305 15.2932 8.29305C15.6832 7.90205 16.3171 7.90205 16.7071 8.29305L22.7071 14.2931Z" fill="#444746" stroke="#444746" stroke-width="2"/>
</svg>
