<svg width="30" height="30" viewBox="0 0 30 30" fill="none" xmlns="http://www.w3.org/2000/svg">
<path fill-rule="evenodd" clip-rule="evenodd" d="M18.0002 28C18.0002 27.448 18.4482 27 19.0002 27H24.0002C25.6572 27 27.0002 25.657 27.0002 24L27.0002 5.99996C27.0002 4.34296 25.6572 2.99996 24.0002 2.99996H19.0002C18.4482 2.99996 18.0002 2.55196 18.0002 1.99996C18.0002 1.44796 18.4482 0.999963 19.0002 0.999963H24.0002C26.7612 0.999963 29.0002 3.23896 29.0002 5.99996L29.0002 24C29.0002 26.761 26.7612 29 24.0002 29H19.0002C18.4482 29 18.0002 28.552 18.0002 28Z" fill="#444746" stroke="#444746"/>
<path fill-rule="evenodd" clip-rule="evenodd" d="M22.7072 14.293C23.0982 14.683 23.0982 15.317 22.7072 15.707L16.7072 21.707C16.3172 22.098 15.6833 22.098 15.2933 21.707C14.9023 21.317 14.9023 20.683 15.2933 20.293L19.5862 16L2.00024 16C1.44824 16 1.00024 15.552 1.00024 15C1.00024 14.448 1.44824 14 2.00024 14L19.5862 14L15.2933 9.70696C14.9023 9.31696 14.9023 8.68302 15.2933 8.29302C15.6833 7.90202 16.3172 7.90202 16.7072 8.29302L22.7072 14.293Z" fill="#444746" stroke="#444746"/>
</svg>
