<svg width="30" height="28" viewBox="0 0 30 28" fill="none" xmlns="http://www.w3.org/2000/svg">
<path d="M22.71 14.7069L28.71 8.70695C29.1 8.31695 29.1 7.68301 28.71 7.29301L22.71 1.29301C22.32 0.902006 21.68 0.902006 21.29 1.29301C20.9 1.68301 20.9 2.31695 21.29 2.70695L25.5901 6.99998H11C5.48 6.99998 1 11.477 1 17C1 22.523 5.48 27 11 27H27C27.55 27 28 26.552 28 26C28 25.448 27.55 25 27 25H11C6.58 25 3 21.418 3 17C3 12.582 6.58 8.99998 11 8.99998H25.5901L21.29 13.293C20.9 13.683 20.9 14.3169 21.29 14.7069C21.68 15.0979 22.32 15.0979 22.71 14.7069Z" fill="#444746" stroke="#444746"/>
</svg>
