<svg width="30" height="30" viewBox="0 0 30 30" fill="none" xmlns="http://www.w3.org/2000/svg">
<path fill-rule="evenodd" clip-rule="evenodd" d="M13.5 3C7.701 3 3 7.701 3 13.5C3 19.299 7.701 24 13.5 24C16.397 24 19.018 22.828 20.919 20.93C22.824 19.028 24 16.402 24 13.5C24 7.701 19.299 3 13.5 3ZM1 13.5C1 6.596 6.596 1 13.5 1C20.404 1 26 6.596 26 13.5C26 16.594 24.875 19.427 23.013 21.609L28.706 27.292C29.097 27.682 29.098 28.316 28.708 28.706C28.318 29.097 27.684 29.098 27.294 28.708L21.598 23.023C19.417 24.879 16.589 26 13.5 26C6.596 26 1 20.404 1 13.5Z" fill="#444746" stroke="#444746"/>
</svg>
