<svg width="30" height="30" viewBox="0 0 30 30" fill="none" xmlns="http://www.w3.org/2000/svg">
<path fill-rule="evenodd" clip-rule="evenodd" d="M9 2C9 1.448 8.55 1 8 1C7.45 1 7 1.448 7 2V5H4C2.34 5 1 6.343 1 8V11C1 12.657 2.34 14 4 14H7V28C7 28.552 7.45 29 8 29C8.55 29 9 28.552 9 28V14H12C13.66 14 15 12.657 15 11V8C15 6.343 13.66 5 12 5H9V2ZM12 12H4C3.45 12 3 11.552 3 11V8C3 7.448 3.45 7 4 7H12C12.55 7 13 7.448 13 8V11C13 11.552 12.55 12 12 12Z" fill="#444746" stroke="#444746"/>
<path fill-rule="evenodd" clip-rule="evenodd" d="M21 25V28C21 28.552 21.45 29 22 29C22.55 29 23 28.552 23 28V25H26C27.66 25 29 23.657 29 22V19C29 17.343 27.66 16 26 16H23V2C23 1.448 22.55 1 22 1C21.45 1 21 1.448 21 2V16H18C16.34 16 15 17.343 15 19V22C15 23.657 16.34 25 18 25H21ZM26 23C26.55 23 27 22.552 27 22V19C27 18.448 26.55 18 26 18H18C17.45 18 17 18.448 17 19V22C17 22.552 17.45 23 18 23H26Z" fill="#444746" stroke="#444746"/>
</svg>
