<svg width="30" height="30" viewBox="0 0 30 30" fill="none" xmlns="http://www.w3.org/2000/svg">
<path fill-rule="evenodd" clip-rule="evenodd" d="M12.23 3.05601C13.255 0.592008 16.7451 0.592008 17.7701 3.05601L19.951 8.29899C20.095 8.64499 20.4201 8.88196 20.7941 8.91196L26.4551 9.366C29.1151 9.579 30.193 12.8979 28.167 14.6339L23.8541 18.329C23.5691 18.573 23.445 18.955 23.532 19.32L24.8491 24.844C25.4691 27.44 22.6451 29.491 20.3671 28.1L15.5211 25.14C15.2011 24.945 14.7991 24.945 14.4791 25.14L9.63305 28.1C7.35505 29.491 4.53106 27.44 5.15106 24.844L6.46807 19.32C6.55507 18.955 6.43105 18.573 6.14605 18.329L1.83306 14.6339C-0.192936 12.8979 0.885039 9.579 3.54504 9.366L9.20605 8.91196C9.58005 8.88196 9.90507 8.64499 10.0491 8.29899L12.23 3.05601ZM15.923 3.82395C15.582 3.00295 14.4181 3.00295 14.0771 3.82395L11.8961 9.06699C11.4641 10.106 10.4871 10.816 9.36608 10.905L3.70507 11.359C2.81807 11.43 2.45907 12.537 3.13507 13.115L7.44708 16.81C8.30208 17.542 8.67506 18.69 8.41406 19.784L7.09606 25.308C6.89006 26.173 7.83108 26.857 8.59008 26.393L13.436 23.433C14.396 22.847 15.6041 22.847 16.5641 23.433L21.41 26.393C22.169 26.857 23.11 26.173 22.904 25.308L21.5861 19.784C21.3251 18.69 21.698 17.542 22.553 16.81L26.865 13.115C27.541 12.537 27.182 11.43 26.295 11.359L20.634 10.905C19.513 10.816 18.5361 10.106 18.1041 9.06699L15.923 3.82395Z" fill="#444746" stroke="#444746"/>
</svg>
