<svg width="30" height="28" viewBox="0 0 30 28" fill="none" xmlns="http://www.w3.org/2000/svg">
<path d="M1.29006 8.70695C0.900059 8.31695 0.900059 7.68301 1.29006 7.29301L7.29006 1.29301C7.68006 0.902006 8.31998 0.902006 8.70998 1.29301C9.09998 1.68301 9.09998 2.31695 8.70998 2.70695L4.40993 6.99998H19C24.52 6.99998 29 11.477 29 17C29 22.523 24.52 27 19 27H3.00002C2.45002 27 2.00002 26.552 2.00002 26C2.00002 25.448 2.45002 25 3.00002 25H19C23.42 25 27 21.418 27 17C27 12.582 23.42 8.99998 19 8.99998H4.40993L8.70998 13.293C9.09998 13.683 9.09998 14.3169 8.70998 14.7069C8.31998 15.0979 7.68006 15.0979 7.29006 14.7069L1.29006 8.70695Z" fill="#444746" stroke="#444746"/>
</svg>
